<?xml version="1.0" encoding="UTF-8" standalone="no"?>
<svg width="42px" height="34px" viewBox="0 0 42 34" version="1.1" xmlns="http://www.w3.org/2000/svg" xmlns:xlink="http://www.w3.org/1999/xlink" xmlns:sketch="http://www.bohemiancoding.com/sketch/ns">
    <!-- Generator: Sketch 3.3.1 (12005) - http://www.bohemiancoding.com/sketch -->
    <title>Mail</title>
    <desc>Created with Sketch.</desc>
    <defs></defs>
    <g id="Page-1" stroke="none" stroke-width="1" fill="none" fill-rule="evenodd" sketch:type="MSPage">
        <g id="Login" sketch:type="MSArtboardGroup" transform="translate(-729.000000, -520.000000)">
            <g id="Email-Button" sketch:type="MSLayerGroup" transform="translate(720.000000, 503.000000)">
                <rect id="Rectangle-52" stroke="#02A6D8" stroke-width="2" sketch:type="MSShapeGroup" x="0" y="0" width="410" height="60" rx="8"></rect>
                <path d="M46,17.75 L14,17.75 C11.79,17.75 10.02,19.5679687 10.02,21.8125 L10,46.1875 C10,48.4320313 11.79,50.25 14,50.25 L46,50.25 C48.21,50.25 50,48.4320313 50,46.1875 L50,21.8125 C50,19.5679687 48.21,17.75 46,17.75 L46,17.75 Z M46,25.875 L30,36.03125 L14,25.875 L14,21.8125 L30,31.96875 L46,21.8125 L46,25.875 L46,25.875 Z" id="Shape-2" fill="#02A6D8" sketch:type="MSShapeGroup"></path>
            </g>
        </g>
    </g>
</svg>